<svg width="192" height="192" viewBox="0 0 192 192" fill="none" xmlns="http://www.w3.org/2000/svg">
  <!-- Background circle with gradient -->
  <defs>
    <linearGradient id="bg-gradient" x1="0%" y1="0%" x2="100%" y2="100%">
      <stop offset="0%" style="stop-color:#0ea5e9;stop-opacity:1" />
      <stop offset="100%" style="stop-color:#a8edea;stop-opacity:1" />
    </linearGradient>
  </defs>
  
  <!-- Background -->
  <circle cx="96" cy="96" r="96" fill="url(#bg-gradient)"/>
  
  <!-- Clipboard -->
  <rect x="48" y="32" width="96" height="128" rx="8" fill="white" stroke="#0ea5e9" stroke-width="2"/>
  
  <!-- Clip -->
  <rect x="80" y="24" width="32" height="16" rx="4" fill="#0ea5e9"/>
  
  <!-- Checkboxes and lines -->
  <!-- First item - checked -->
  <rect x="64" y="64" width="16" height="16" rx="2" fill="#10b981" stroke="#10b981" stroke-width="2"/>
  <path d="M68 72 L72 76 L80 68" stroke="white" stroke-width="2" stroke-linecap="round" stroke-linejoin="round" fill="none"/>
  <rect x="88" y="68" width="40" height="2" fill="#6b7280"/>
  
  <!-- Second item - checked -->
  <rect x="64" y="88" width="16" height="16" rx="2" fill="#10b981" stroke="#10b981" stroke-width="2"/>
  <path d="M68 96 L72 100 L80 92" stroke="white" stroke-width="2" stroke-linecap="round" stroke-linejoin="round" fill="none"/>
  <rect x="88" y="92" width="32" height="2" fill="#6b7280"/>
  
  <!-- Third item - unchecked -->
  <rect x="64" y="112" width="16" height="16" rx="2" fill="white" stroke="#0ea5e9" stroke-width="2"/>
  <rect x="88" y="116" width="36" height="2" fill="#0ea5e9"/>
  
  <!-- Fourth item - unchecked -->
  <rect x="64" y="136" width="16" height="16" rx="2" fill="white" stroke="#0ea5e9" stroke-width="2"/>
  <rect x="88" y="140" width="28" height="2" fill="#0ea5e9"/>
</svg>